<svg width="170" height="62" viewBox="0 0 170 62" fill="none" xmlns="http://www.w3.org/2000/svg">
<g filter="url(#filter0_d_5_718)">
<circle cx="31" cy="27" r="27" fill="white"/>
<path d="M33.584 36.1392C32.352 36.1392 31.248 35.9392 30.272 35.5392C29.296 35.1392 28.512 34.5472 27.92 33.7632C27.344 32.9792 27.04 32.0352 27.008 30.9312H31.376C31.44 31.5552 31.656 32.0352 32.024 32.3712C32.392 32.6912 32.872 32.8512 33.464 32.8512C34.072 32.8512 34.552 32.7152 34.904 32.4432C35.256 32.1552 35.432 31.7632 35.432 31.2672C35.432 30.8512 35.288 30.5072 35 30.2352C34.728 29.9632 34.384 29.7392 33.968 29.5632C33.568 29.3872 32.992 29.1872 32.24 28.9632C31.152 28.6272 30.264 28.2912 29.576 27.9552C28.888 27.6192 28.296 27.1232 27.8 26.4672C27.304 25.8112 27.056 24.9552 27.056 23.8992C27.056 22.3312 27.624 21.1072 28.76 20.2272C29.896 19.3312 31.376 18.8832 33.2 18.8832C35.056 18.8832 36.552 19.3312 37.688 20.2272C38.824 21.1072 39.432 22.3392 39.512 23.9232H35.072C35.04 23.3792 34.84 22.9552 34.472 22.6512C34.104 22.3312 33.632 22.1712 33.056 22.1712C32.56 22.1712 32.16 22.3072 31.856 22.5792C31.552 22.8352 31.4 23.2112 31.4 23.7072C31.4 24.2512 31.656 24.6752 32.168 24.9792C32.68 25.2832 33.48 25.6112 34.568 25.9632C35.656 26.3312 36.536 26.6832 37.208 27.0192C37.896 27.3552 38.488 27.8432 38.984 28.4832C39.48 29.1232 39.728 29.9472 39.728 30.9552C39.728 31.9152 39.48 32.7872 38.984 33.5712C38.504 34.3552 37.8 34.9792 36.872 35.4432C35.944 35.9072 34.848 36.1392 33.584 36.1392Z" fill="#0F6E8C"/>
<path d="M74.952 36.154C73.8227 36.154 72.8107 35.9707 71.916 35.604C71.0213 35.2373 70.3027 34.6947 69.76 33.976C69.232 33.2573 68.9533 32.392 68.924 31.38H72.928C72.9867 31.952 73.1847 32.392 73.522 32.7C73.8593 32.9933 74.2993 33.14 74.842 33.14C75.3993 33.14 75.8393 33.0153 76.162 32.766C76.4847 32.502 76.646 32.1427 76.646 31.688C76.646 31.3067 76.514 30.9913 76.25 30.742C76.0007 30.4927 75.6853 30.2873 75.304 30.126C74.9373 29.9647 74.4093 29.7813 73.72 29.576C72.7227 29.268 71.9087 28.96 71.278 28.652C70.6473 28.344 70.1047 27.8893 69.65 27.288C69.1953 26.6867 68.968 25.902 68.968 24.934C68.968 23.4967 69.4887 22.3747 70.53 21.568C71.5713 20.7467 72.928 20.336 74.6 20.336C76.3013 20.336 77.6727 20.7467 78.714 21.568C79.7553 22.3747 80.3127 23.504 80.386 24.956H76.316C76.2867 24.4573 76.1033 24.0687 75.766 23.79C75.4287 23.4967 74.996 23.35 74.468 23.35C74.0133 23.35 73.6467 23.4747 73.368 23.724C73.0893 23.9587 72.95 24.3033 72.95 24.758C72.95 25.2567 73.1847 25.6453 73.654 25.924C74.1233 26.2027 74.8567 26.5033 75.854 26.826C76.8513 27.1633 77.658 27.486 78.274 27.794C78.9047 28.102 79.4473 28.5493 79.902 29.136C80.3567 29.7227 80.584 30.478 80.584 31.402C80.584 32.282 80.3567 33.0813 79.902 33.8C79.462 34.5187 78.8167 35.0907 77.966 35.516C77.1153 35.9413 76.1107 36.154 74.952 36.154ZM102.021 23.724L98.6992 36H94.5412L92.6052 28.036L90.6032 36H86.4672L83.1232 23.724H86.8852L88.6232 32.502L90.6912 23.724H94.6732L96.7632 32.458L98.4792 23.724H102.021ZM106.848 22.448C106.188 22.448 105.645 22.2573 105.22 21.876C104.809 21.48 104.604 20.996 104.604 20.424C104.604 19.8373 104.809 19.3533 105.22 18.972C105.645 18.576 106.188 18.378 106.848 18.378C107.493 18.378 108.021 18.576 108.432 18.972C108.857 19.3533 109.07 19.8373 109.07 20.424C109.07 20.996 108.857 21.48 108.432 21.876C108.021 22.2573 107.493 22.448 106.848 22.448ZM108.718 23.724V36H104.956V23.724H108.718ZM119.104 26.848H117.08V36H113.318V26.848H111.954V23.724H113.318V23.372C113.318 21.8613 113.751 20.7173 114.616 19.94C115.481 19.148 116.75 18.752 118.422 18.752C118.701 18.752 118.906 18.7593 119.038 18.774V21.964C118.319 21.92 117.813 22.0227 117.52 22.272C117.227 22.5213 117.08 22.9687 117.08 23.614V23.724H119.104V26.848ZM129.214 32.81V36H127.3C125.936 36 124.872 35.67 124.11 35.01C123.347 34.3353 122.966 33.2427 122.966 31.732V26.848H121.47V23.724H122.966V20.732H126.728V23.724H129.192V26.848H126.728V31.776C126.728 32.1427 126.816 32.4067 126.992 32.568C127.168 32.7293 127.461 32.81 127.872 32.81H129.214ZM142.863 20.556V23.57H136.571V26.826H141.279V29.752H136.571V36H132.809V20.556H142.863ZM148.233 22.448C147.573 22.448 147.03 22.2573 146.605 21.876C146.194 21.48 145.989 20.996 145.989 20.424C145.989 19.8373 146.194 19.3533 146.605 18.972C147.03 18.576 147.573 18.378 148.233 18.378C148.878 18.378 149.406 18.576 149.817 18.972C150.242 19.3533 150.455 19.8373 150.455 20.424C150.455 20.996 150.242 21.48 149.817 21.876C149.406 22.2573 148.878 22.448 148.233 22.448ZM150.103 23.724V36H146.341V23.724H150.103ZM161.589 36L159.235 32.59L157.255 36H153.185L157.233 29.73L153.075 23.724H157.299L159.653 27.112L161.633 23.724H165.703L161.589 29.906L165.813 36H161.589Z" fill="#F9F8F9"/>
</g>
<defs>
<filter id="filter0_d_5_718" x="0" y="0" width="169.813" height="62" filterUnits="userSpaceOnUse" color-interpolation-filters="sRGB">
<feFlood flood-opacity="0" result="BackgroundImageFix"/>
<feColorMatrix in="SourceAlpha" type="matrix" values="0 0 0 0 0 0 0 0 0 0 0 0 0 0 0 0 0 0 127 0" result="hardAlpha"/>
<feOffset dy="4"/>
<feGaussianBlur stdDeviation="2"/>
<feComposite in2="hardAlpha" operator="out"/>
<feColorMatrix type="matrix" values="0 0 0 0 0 0 0 0 0 0 0 0 0 0 0 0 0 0 0.25 0"/>
<feBlend mode="normal" in2="BackgroundImageFix" result="effect1_dropShadow_5_718"/>
<feBlend mode="normal" in="SourceGraphic" in2="effect1_dropShadow_5_718" result="shape"/>
</filter>
</defs>
</svg>
